<svg width="28" height="31" viewBox="0 0 28 31" fill="none" xmlns="http://www.w3.org/2000/svg">
<path d="M12.7398 0.393533C13.5011 -0.044535 14.4927 -0.0465137 15.2534 0.393533C19.0801 2.56727 22.9081 4.7376 26.7342 6.91266C27.4538 7.32017 27.9352 8.12529 27.9278 8.95888V22.0369C27.9332 22.905 27.4043 23.7294 26.645 24.1277C22.8309 26.2894 19.0187 28.4538 15.2052 30.6156C14.4281 31.0622 13.4166 31.0278 12.6638 30.5446C11.5204 29.8782 10.3749 29.2151 9.23131 28.5494C8.99763 28.4093 8.7342 28.2978 8.56919 28.0701C8.71506 27.8724 8.97587 27.8478 9.18779 27.7615C9.66511 27.6089 10.1035 27.364 10.542 27.1263C10.6529 27.05 10.7883 27.0793 10.8945 27.1475C11.8724 27.7112 12.8415 28.2911 13.8226 28.8494C14.0319 28.9708 14.2439 28.8096 14.4228 28.7093C18.1656 26.5827 21.9131 24.4642 25.6553 22.3369C25.794 22.2699 25.8706 22.1219 25.8594 21.9692C25.862 17.6551 25.86 13.3401 25.8607 9.02594C25.8765 8.85269 25.7768 8.69341 25.621 8.6225C21.82 6.47064 18.0211 4.31548 14.2208 2.16306C14.1549 2.11756 14.0769 2.09314 13.997 2.09302C13.9171 2.09291 13.8391 2.11709 13.7731 2.1624C9.97282 4.31548 6.17451 6.47262 2.37423 8.62437C2.21895 8.69538 2.11474 8.85203 2.13322 9.02594C2.13387 13.3401 2.13322 17.6551 2.13322 21.9699C2.12663 22.0444 2.1429 22.1191 2.17986 22.184C2.21681 22.249 2.27266 22.3009 2.33989 22.333C3.35401 22.9111 4.36945 23.4851 5.38423 24.0613C5.95591 24.3706 6.65784 24.5544 7.2877 24.3174C7.84353 24.117 8.23315 23.5468 8.22255 22.9535C8.22779 18.6645 8.21992 14.3749 8.22648 10.0865C8.21259 9.89614 8.39226 9.73883 8.57641 9.75675C9.06367 9.75345 9.5516 9.75015 10.0389 9.75807C10.2423 9.75345 10.3822 9.95847 10.3571 10.1503C10.3551 14.4664 10.3623 18.7827 10.3538 23.0989C10.3551 24.2492 9.88501 25.5008 8.8266 26.0636C7.5227 26.7427 5.91108 26.5987 4.62292 25.9476C3.50776 25.388 2.44356 24.7277 1.34819 24.1282C0.586992 23.7322 0.0606844 22.9045 0.0660426 22.037V8.95888C0.05806 8.10803 0.55856 7.28829 1.30062 6.88672C5.11413 4.7232 8.92699 2.55804 12.7398 0.393533Z" fill="#8CC84B"/>
<path d="M16.0667 9.45278C17.73 9.34516 19.5105 9.38903 21.0072 10.2127C22.166 10.8439 22.8084 12.1687 22.8289 13.4629C22.7965 13.6374 22.615 13.7337 22.4492 13.7218C21.9667 13.7211 21.484 13.7284 21.0014 13.7185C20.7967 13.7264 20.6777 13.5366 20.652 13.3547C20.5134 12.7355 20.1775 12.1222 19.5977 11.8235C18.7077 11.3756 17.6757 11.3981 16.7052 11.4074C15.9967 11.4452 15.2349 11.5069 14.6347 11.9257C14.1739 12.243 14.0339 12.8834 14.1984 13.3992C14.3534 13.7696 14.7787 13.8891 15.1266 13.9992C17.131 14.5262 19.2551 14.4738 21.2212 15.1673C22.0352 15.4501 22.8315 15.9997 23.1101 16.8565C23.4746 18.0048 23.3148 19.3774 22.5021 20.2992C21.8431 21.0579 20.8832 21.4708 19.9258 21.695C18.6522 21.9805 17.3305 21.9878 16.0371 21.861C14.8209 21.7216 13.5553 21.4004 12.6164 20.5674C11.8135 19.8666 11.4214 18.7746 11.4603 17.7208C11.4696 17.5428 11.6459 17.4187 11.8155 17.4333C12.3014 17.4293 12.7874 17.428 13.2734 17.434C13.4675 17.42 13.6114 17.5886 13.6213 17.7725C13.711 18.3625 13.9315 18.9817 14.4433 19.3315C15.431 19.9721 16.6702 19.9282 17.8011 19.9462C18.7381 19.9044 19.7898 19.8917 20.5544 19.2692C20.9578 18.9141 21.0773 18.3201 20.9683 17.809C20.8502 17.3776 20.4012 17.1765 20.0156 17.045C18.0369 16.4158 15.8891 16.6441 13.9296 15.9325C13.134 15.6499 12.3648 15.1156 12.0591 14.2939C11.6326 13.1311 11.8281 11.6928 12.7259 10.8021C13.6014 9.91602 14.8652 9.57481 16.0667 9.45267V9.45278Z" fill="#8CC84B"/>
</svg>
