<svg width="28" height="31" viewBox="0 0 28 31" fill="none" xmlns="http://www.w3.org/2000/svg">
<path d="M28 15.5027C28 13.7005 25.6771 11.9925 22.1158 10.9334C22.9376 7.4065 22.5724 4.60054 20.9629 3.70219C20.5919 3.49147 20.1582 3.39165 19.6845 3.39165V4.62827C19.947 4.62827 20.1582 4.67818 20.3351 4.77245C21.1113 5.20499 21.448 6.85197 21.1855 8.9703C21.1227 9.49156 21.02 10.0406 20.8944 10.6006C19.7758 10.3345 18.5544 10.1293 17.2703 9.99619C16.4998 8.9703 15.7008 8.03868 14.896 7.22351C16.7566 5.54326 18.5031 4.62273 19.6902 4.62273V3.38611C18.1207 3.38611 16.066 4.473 13.9886 6.35843C11.9111 4.48409 9.8565 3.40829 8.287 3.40829V4.64491C9.46841 4.64491 11.2205 5.55989 13.0811 7.22905C12.2821 8.04422 11.4831 8.9703 10.724 9.99619C9.43416 10.1293 8.2128 10.3345 7.09417 10.6062C6.9629 10.0516 6.86588 9.51374 6.79739 8.99802C6.52915 6.87969 6.86017 5.23272 7.63066 4.79463C7.80188 4.69482 8.02446 4.65045 8.287 4.65045V3.41384C7.80758 3.41384 7.37383 3.51365 6.99715 3.72438C5.3934 4.62273 5.03384 7.42314 5.86139 10.9389C2.31146 12.0036 0 13.706 0 15.5027C0 17.305 2.32287 19.013 5.88422 20.0721C5.06237 23.599 5.42764 26.4049 7.0371 27.3033C7.40807 27.514 7.84183 27.6138 8.32124 27.6138C9.89075 27.6138 11.9454 26.5269 14.0228 24.6415C16.1003 26.5159 18.1549 27.5917 19.7244 27.5917C20.2038 27.5917 20.6376 27.4918 21.0143 27.2811C22.618 26.3828 22.9776 23.5824 22.15 20.0666C25.6885 19.0074 28 17.2994 28 15.5027ZM20.5691 11.804C20.3579 12.5193 20.0954 13.2569 19.7986 13.9944C19.5646 13.5508 19.3192 13.1071 19.051 12.6635C18.7884 12.2199 18.5088 11.7873 18.2291 11.3659C19.0395 11.4824 19.8214 11.6265 20.5691 11.804ZM17.9552 17.7098C17.51 18.4584 17.0534 19.1682 16.5797 19.8281C15.7293 19.9002 14.8675 19.939 14 19.939C13.1382 19.939 12.2764 19.9002 11.4317 19.8337C10.958 19.1738 10.4957 18.4695 10.0506 17.7264C9.6168 17 9.22299 16.2625 8.86343 15.5194C9.21729 14.7763 9.6168 14.0332 10.0448 13.3068C10.49 12.5582 10.9466 11.8483 11.4203 11.1884C12.2707 11.1164 13.1325 11.0775 14 11.0775C14.8618 11.0775 15.7236 11.1164 16.5683 11.1829C17.042 11.8428 17.5043 12.5471 17.9495 13.2901C18.3832 14.0166 18.777 14.7541 19.1366 15.4972C18.777 16.2403 18.3832 16.9834 17.9552 17.7098ZM19.7986 16.9889C20.1068 17.732 20.3693 18.4751 20.5862 19.196C19.8386 19.3734 19.051 19.5231 18.2348 19.6396C18.5145 19.2126 18.7941 18.7745 19.0567 18.3253C19.3192 17.8817 19.5646 17.4325 19.7986 16.9889ZM14.0114 22.9058C13.4806 22.3735 12.9499 21.7801 12.4248 21.1313C12.9384 21.1535 13.4635 21.1701 13.9943 21.1701C14.5308 21.1701 15.0616 21.159 15.5809 21.1313C15.0673 21.7801 14.5365 22.3735 14.0114 22.9058ZM9.76519 19.6396C8.95475 19.5231 8.17285 19.379 7.42519 19.2015C7.63636 18.4862 7.8989 17.7486 8.19568 17.0111C8.42968 17.4547 8.67509 17.8983 8.94333 18.342C9.21158 18.7856 9.48553 19.2181 9.76519 19.6396ZM13.9829 8.09967C14.5137 8.63203 15.0444 9.22539 15.5695 9.87419C15.0559 9.85201 14.5308 9.83538 14 9.83538C13.4635 9.83538 12.9327 9.84647 12.4134 9.87419C12.927 9.22539 13.4578 8.63203 13.9829 8.09967ZM9.75948 11.3659C9.47982 11.7929 9.20016 12.231 8.93763 12.6802C8.67509 13.1238 8.42968 13.5674 8.19568 14.011C7.88748 13.268 7.62495 12.5249 7.40807 11.804C8.15573 11.6321 8.94334 11.4824 9.75948 11.3659ZM4.59438 18.3087C2.57399 17.4714 1.26702 16.3734 1.26702 15.5027C1.26702 14.6321 2.57399 13.5286 4.59438 12.6968C5.0852 12.4916 5.62169 12.3086 6.1753 12.1367C6.50061 13.2236 6.92866 14.3549 7.45944 15.5138C6.93437 16.6673 6.51203 17.793 6.19242 18.8743C5.6274 18.7024 5.09091 18.5139 4.59438 18.3087ZM7.6649 26.233C6.88871 25.8005 6.55198 24.1535 6.81451 22.0352C6.87729 21.5139 6.98003 20.9649 7.10559 20.4049C8.22422 20.671 9.44558 20.8762 10.7297 21.0093C11.5002 22.0352 12.2992 22.9668 13.104 23.782C11.2434 25.4622 9.49694 26.3828 8.30982 26.3828C8.053 26.3772 7.83612 26.3273 7.6649 26.233ZM21.2026 22.0075C21.4709 24.1258 21.1398 25.7728 20.3693 26.2109C20.1981 26.3107 19.9755 26.355 19.713 26.355C18.5316 26.355 16.7795 25.4401 14.9189 23.7709C15.7179 22.9557 16.5169 22.0296 17.276 21.0038C18.5658 20.8707 19.7872 20.6655 20.9058 20.3938C21.0371 20.9538 21.1398 21.4917 21.2026 22.0075ZM23.3999 18.3087C22.9091 18.5139 22.3726 18.6969 21.819 18.8688C21.4937 17.7819 21.0656 16.6506 20.5349 15.4917C21.0599 14.3382 21.4823 13.2125 21.8019 12.1312C22.3669 12.3031 22.9034 12.4916 23.4056 12.6968C25.426 13.5341 26.733 14.6321 26.733 15.5027C26.7273 16.3734 25.4203 17.4769 23.3999 18.3087Z" fill="#61DAFB"/>
<path d="M13.9943 18.037C15.4348 18.037 16.6025 16.9024 16.6025 15.5027C16.6025 14.1031 15.4348 12.9685 13.9943 12.9685C12.5538 12.9685 11.386 14.1031 11.386 15.5027C11.386 16.9024 12.5538 18.037 13.9943 18.037Z" fill="#61DAFB"/>
</svg>
