<svg width="30" height="30" viewBox="0 0 30 30" fill="none" xmlns="http://www.w3.org/2000/svg">
<path fill-rule="evenodd" clip-rule="evenodd" d="M25.6292 4.35943C24.2424 2.97198 22.5949 1.87253 20.7815 1.12436C18.9681 0.3762 17.0246 -0.00589714 15.0629 6.87987e-05C6.83035 6.87987e-05 0.128571 6.66836 0.125223 14.8661C0.121581 17.4764 0.809661 20.0411 2.11942 22.2991L0 30L7.91851 27.9328C10.1104 29.1202 12.564 29.7417 15.0569 29.7408H15.0629C23.2948 29.7408 29.9959 23.0719 30 14.8748C30.0049 12.9198 29.6211 10.9834 28.8707 9.17813C28.1204 7.37288 27.0185 5.73488 25.6292 4.35943ZM15.0629 27.2317H15.0576C12.8353 27.2324 10.6534 26.6376 8.73883 25.5094L8.28548 25.2415L3.5866 26.4683L4.84084 21.9087L4.54553 21.44C3.30293 19.4727 2.64458 17.193 2.64709 14.8661C2.64709 8.05384 8.21918 2.51122 15.0676 2.51122C18.3529 2.50536 21.5059 3.80466 23.8333 6.12335C26.1606 8.44204 27.4717 11.5902 27.4781 14.8755C27.4754 21.6884 21.906 27.2317 15.0629 27.2317ZM21.8725 17.9779C21.4995 17.7918 19.6627 16.8931 19.3225 16.7692C18.9823 16.6453 18.7312 16.5831 18.4828 16.9554C18.2343 17.3277 17.5185 18.1607 17.3009 18.4119C17.0832 18.663 16.8656 18.6904 16.4926 18.5043C16.1196 18.3181 14.9163 17.9264 13.4906 16.6607C12.381 15.6757 11.6323 14.4596 11.4147 14.088C11.1971 13.7163 11.3913 13.5148 11.5781 13.3299C11.7462 13.1632 11.9511 12.896 12.1379 12.6791C12.3248 12.4621 12.387 12.3067 12.5109 12.059C12.6348 11.8112 12.5732 11.5942 12.4801 11.4087C12.387 11.2233 11.6404 9.39447 11.3297 8.65049C11.0263 7.92594 10.719 8.02438 10.4899 8.013C10.2723 8.00228 10.0212 7.9996 9.77409 7.9996C9.58519 8.00452 9.39934 8.04833 9.22812 8.12829C9.05691 8.20825 8.90403 8.32264 8.779 8.46433C8.43682 8.83666 7.47253 9.73665 7.47253 11.5634C7.47253 13.3902 8.81182 15.1581 8.99664 15.4058C9.18146 15.6536 11.6283 19.4056 15.3723 21.0148C16.0675 21.3125 16.7779 21.5736 17.5004 21.7969C18.3944 22.0795 19.208 22.04 19.8509 21.9442C20.568 21.8377 22.0607 21.0456 22.3707 20.1777C22.6808 19.3098 22.6814 18.5665 22.5884 18.4119C22.4953 18.2572 22.2462 18.1634 21.8725 17.9779Z" fill="#2F8F36"/>
</svg>
