<svg width="206" height="30" viewBox="0 0 206 30" fill="none" xmlns="http://www.w3.org/2000/svg">
<path d="M21.3512 17.1615V18.7229C21.3512 20.3711 20.9052 21.8978 20.0132 23.3031C19.1212 24.6911 17.9066 25.7928 16.3693 26.6082C14.851 27.4236 13.1903 27.8313 11.3873 27.8313C9.58432 27.8313 7.91418 27.4236 6.37689 26.6082C4.85858 25.7928 3.65342 24.6911 2.76141 23.3031C1.8694 21.8978 1.4234 20.3711 1.4234 18.7229C1.4234 17.0747 1.8694 15.5566 2.76141 14.1687C3.65342 12.7634 4.85858 11.653 6.37689 10.8376C7.91418 10.0222 9.58432 9.61447 11.3873 9.61447C12.0706 9.61447 12.7348 9.67519 13.3801 9.79664C14.0444 9.91809 14.6707 10.1003 15.259 10.3431C15.8663 10.5687 16.4357 10.8463 16.9671 11.1759C17.4985 11.5056 17.9825 11.8786 18.419 12.295L15.9992 14.507C14.7276 13.3446 13.1903 12.7634 11.3873 12.7634C9.58432 12.7634 8.04703 13.3446 6.77545 14.507C5.50386 15.6694 4.86807 17.0747 4.86807 18.7229C4.86807 20.3711 5.50386 21.7764 6.77545 22.9388C8.04703 24.1012 9.58432 24.6824 11.3873 24.6824C12.8677 24.6824 14.1867 24.2747 15.3444 23.4593C16.5021 22.6265 17.2708 21.5769 17.6504 20.3104H14.2057V17.1615H21.3512ZM27.6372 27.8313H24.1925V9.61447H27.6372V27.8313ZM35.4569 10.8376C36.9941 10.0222 38.6643 9.61447 40.4673 9.61447C42.2703 9.61447 43.931 10.0222 45.4493 10.8376C46.9866 11.653 48.2012 12.7634 49.0932 14.1687C49.9852 15.5566 50.4312 17.0747 50.4312 18.7229C50.4312 20.3711 49.9852 21.8978 49.0932 23.3031C48.2012 24.6911 46.9866 25.7928 45.4493 26.6082C43.931 27.4236 42.2703 27.8313 40.4673 27.8313C38.6643 27.8313 36.9941 27.4236 35.4569 26.6082C33.9385 25.7928 32.7334 24.6911 31.8414 23.3031C30.9494 21.8978 30.5034 20.3711 30.5034 18.7229C30.5034 17.0747 30.9494 15.5566 31.8414 14.1687C32.7334 12.7634 33.9385 11.653 35.4569 10.8376ZM35.8554 22.9388C37.127 24.1012 38.6643 24.6824 40.4673 24.6824C42.2703 24.6824 43.8076 24.1012 45.0792 22.9388C46.3508 21.7764 46.9866 20.3711 46.9866 18.7229C46.9866 17.0747 46.3508 15.6694 45.0792 14.507C43.8076 13.3446 42.2703 12.7634 40.4673 12.7634C38.6643 12.7634 37.127 13.3446 35.8554 14.507C34.5838 15.6694 33.948 17.0747 33.948 18.7229C33.948 20.3711 34.5838 21.7764 35.8554 22.9388ZM67.3074 14.9494C67.3074 15.973 67.0132 16.9099 66.4249 17.76C65.8366 18.6101 65.0584 19.2607 64.0905 19.7118L67.3074 27.8313H63.635L60.6458 20.3104H53.2725V17.1354H61.4714C62.1357 17.1354 62.6955 16.9272 63.151 16.5109C63.6255 16.0771 63.8628 15.5653 63.8628 14.9754C63.8628 14.3682 63.6255 13.8477 63.151 13.414C62.6955 12.9803 62.1357 12.7634 61.4714 12.7634H53.2725V9.61447H61.4714C63.0846 9.61447 64.4606 10.135 65.5993 11.1759C66.7381 12.2169 67.3074 13.4747 67.3074 14.9494ZM74.3889 9.61447C76.1919 9.61447 77.8526 10.0222 79.3709 10.8376C80.9082 11.653 82.1228 12.7634 83.0148 14.1687C83.9068 15.5566 84.3528 17.0747 84.3528 18.7229C84.3528 19.7118 84.182 20.6747 83.8404 21.6116C83.5178 22.5311 83.0433 23.3639 82.417 24.1099C81.8097 24.8559 81.098 25.5152 80.2819 26.0877C79.4658 26.6429 78.5453 27.0766 77.5204 27.3889C76.5146 27.6839 75.4707 27.8313 74.3889 27.8313H70.1756V24.6824H74.3889C75.0911 24.6824 75.7744 24.587 76.4386 24.3962C77.1029 24.188 77.7007 23.9017 78.2321 23.5374C78.7635 23.1557 79.2285 22.7219 79.6271 22.2362C80.0446 21.7504 80.3578 21.2039 80.5665 20.5966C80.7943 19.9894 80.9082 19.3648 80.9082 18.7229C80.9082 17.0747 80.2724 15.6694 79.0008 14.507C77.7292 13.3446 76.1919 12.7634 74.3889 12.7634H70.1756V9.61447H74.3889ZM95.8699 9.61447L103.129 27.8313H99.4569L94.0194 14.2207L88.6104 27.8313H84.938L92.1974 9.61447H95.8699ZM128.007 10.8376C129.544 10.0222 131.214 9.61447 133.017 9.61447C134.82 9.61447 136.481 10.0222 137.999 10.8376C139.536 11.653 140.751 12.7634 141.643 14.1687C142.535 15.5566 142.981 17.0747 142.981 18.7229C142.981 20.3711 142.535 21.8978 141.643 23.3031C140.751 24.6911 139.536 25.7928 137.999 26.6082C136.481 27.4236 134.82 27.8313 133.017 27.8313C131.214 27.8313 129.544 27.4236 128.007 26.6082C126.488 25.7928 125.283 24.6911 124.391 23.3031C123.499 21.8978 123.053 20.3711 123.053 18.7229C123.053 17.0747 123.499 15.5566 124.391 14.1687C125.283 12.7634 126.488 11.653 128.007 10.8376ZM128.405 22.9388C129.677 24.1012 131.214 24.6824 133.017 24.6824C134.82 24.6824 136.357 24.1012 137.629 22.9388C138.901 21.7764 139.536 20.3711 139.536 18.7229C139.536 17.0747 138.901 15.6694 137.629 14.507C136.357 13.3446 134.82 12.7634 133.017 12.7634C131.214 12.7634 129.677 13.3446 128.405 14.507C127.134 15.6694 126.498 17.0747 126.498 18.7229C126.498 20.3711 127.134 21.7764 128.405 22.9388ZM149.267 27.8313H145.822V24.6824H149.267V27.8313ZM156.346 9.61447C158.149 9.61447 159.81 10.0222 161.328 10.8376C162.866 11.653 164.08 12.7634 164.972 14.1687C165.864 15.5566 166.31 17.0747 166.31 18.7229C166.31 19.7118 166.14 20.6747 165.798 21.6116C165.475 22.5311 165.001 23.3639 164.375 24.1099C163.767 24.8559 163.056 25.5152 162.239 26.0877C161.423 26.6429 160.503 27.0766 159.478 27.3889C158.472 27.6839 157.428 27.8313 156.346 27.8313H152.133V24.6824H156.346C157.049 24.6824 157.732 24.587 158.396 24.3962C159.06 24.188 159.658 23.9017 160.19 23.5374C160.721 23.1557 161.186 22.7219 161.585 22.2362C162.002 21.7504 162.315 21.2039 162.524 20.5966C162.752 19.9894 162.866 19.3648 162.866 18.7229C162.866 17.0747 162.23 15.6694 160.958 14.507C159.687 13.3446 158.149 12.7634 156.346 12.7634H152.133V9.61447H156.346ZM183.21 27.8313H169.175V24.6824H183.21V27.8313ZM183.21 12.7634H169.175V9.61447H183.21V12.7634ZM180.847 20.3104H169.175V17.1354H180.847V20.3104ZM200.597 9.61447H204.27L197.01 27.8313H193.338L186.078 9.61447H189.751L195.16 23.2251L200.597 9.61447Z" fill="#E1E1E6"/>
<path fill-rule="evenodd" clip-rule="evenodd" d="M109.722 9.39758H109.129H105.57V27.8313H109.129V14.8735L117.432 27.6506H120.793V9.39758H117.432V21.506L109.722 9.39758Z" fill="#E1E1E6"/>
</svg>
